<?xml version="1.0" encoding="utf-8"?>
<svg viewBox="13.38 3.2 485.44 505.7" xmlns="http://www.w3.org/2000/svg">
  <path d="M 189.785 32.428 C 117.966 37.658 56.912 42.468 54.041 43.032 C 45.993 44.444 38.671 49.818 35.228 56.89 L 32.212 63.113 L 32.503 211.426 L 32.93 359.739 L 37.526 368.931 C 40.115 374.018 57.638 397.774 76.742 422.228 C 114.523 470.438 117.248 473.129 131.61 474.542 C 135.78 474.962 167.093 473.549 200.995 471.573 C 235.042 469.454 289.62 466.2 322.377 464.367 C 462.281 456.007 455.096 456.713 463.135 449.927 C 473.191 441.728 472.474 455.158 472.901 274.898 C 473.191 122.061 473.046 112.029 470.748 107.362 C 468.022 102.132 463.135 98.457 399.356 54.342 C 356.697 24.935 353.681 23.379 334.568 23.093 C 326.674 22.816 261.459 27.054 189.785 32.428 Z M 351.237 51.794 C 357.269 54.476 401.372 84.732 407.831 90.535 C 409.557 92.234 410.129 93.647 409.266 94.496 C 407.259 96.195 134.327 112.172 126.432 111.037 C 122.844 110.474 117.53 108.355 114.514 106.37 C 102.014 98.028 70.992 73.002 70.992 71.169 C 70.992 66.359 69.984 66.359 191.656 57.74 C 214.93 56.184 253.138 53.358 276.411 51.517 C 326.819 47.556 341.908 47.699 351.237 51.794 Z M 437.999 129.133 C 440.007 131.109 441.733 134.927 442.305 138.602 C 442.732 141.999 443.023 205.337 442.732 279.136 C 442.305 405.812 442.16 413.734 439.716 417.409 C 438.281 419.671 435.41 422.076 433.248 422.782 C 427.226 425.188 141.23 441.165 135.344 439.466 C 132.619 438.76 128.876 436.498 126.868 434.522 L 123.417 430.847 L 122.99 294.274 C 122.699 198.417 122.99 156.001 124.143 152.183 C 125.006 149.358 127.159 145.96 129.031 144.834 C 131.619 143.135 148.57 141.722 206.89 138.334 C 247.833 136.072 311.176 132.254 347.522 130.135 C 433.975 124.895 433.694 124.895 437.999 129.133 Z" style="fill: rgb(255, 255, 255);"/>
  <!-- Roman serif T -->
  <path d="M190 215 h180 l-10 30 h-70 v140 h-40V245h-70l-10-30h20z
           M180 210 v10h200v-10z
           M265 385 v25h30v-25z" fill="#fff"/>
</svg>